<svg width="154" height="154" viewBox="0 0 154 154" fill="none" xmlns="http://www.w3.org/2000/svg">
<path d="M12.3115 75.1919C13.46 75.9759 15.5333 76.2056 16.9206 76.3587C17.1396 76.3832 17.3417 76.4047 17.5209 76.4276C21.2174 76.8441 25.0334 76.9452 28.811 77.0447C30.7175 77.0953 32.6147 77.1443 34.4814 77.2346C40.3232 77.4429 45.9506 77.06 51.6929 76.668C53.362 76.5532 55.0403 76.4383 56.737 76.3373C75.855 75.1092 139.288 62.9968 143.245 60.2696C143.858 67.0393 144.119 71.8399 144.381 76.6175C144.482 78.4642 144.583 80.3079 144.703 82.2603C145.046 88.5584 144.642 94.9102 144.239 101.233C144.124 103.018 144.011 104.801 143.914 106.58C143.704 109.376 143.718 112.117 143.732 114.892C143.735 115.589 143.74 116.285 143.74 116.99C143.743 117.36 143.755 117.731 143.775 118.101C143.839 119.446 143.913 120.973 143.3 122.014C142.113 124.015 139.705 124.764 137.532 125.439C136.976 125.612 136.435 125.779 135.935 125.963C128.745 128.745 120.326 130.001 112.61 130.719C102.473 131.626 92.3882 133.175 82.294 134.725C69.4221 136.7 56.5379 138.68 43.5144 139.334C41.7733 139.438 39.9863 139.613 38.1809 139.787C33.8061 140.213 29.3209 140.649 25.1007 140.141C23.7838 140.052 19.6647 139.513 19.1379 137.809C18.1487 134.838 17.9527 131.361 17.7674 128.062C17.7062 126.975 17.6465 125.909 17.5592 124.887C16.7706 115.463 15.6298 106.041 14.4905 96.6191C14.3619 95.4094 14.1643 93.7541 13.9392 91.8706C13.2961 86.4636 12.4279 79.1793 12.3115 75.1919Z" fill="#F5AC5F"/>
<path d="M17.6097 125.499C17.5944 125.294 17.5776 125.089 17.5592 124.886C17.0462 118.749 16.3832 112.615 15.6681 106.479C17.2591 106.084 19.703 104.932 21.4961 104.089C22.2863 103.717 22.9508 103.404 23.3597 103.242C30.1432 100.853 37.2959 99.3937 44.1713 98.0661C50.863 96.9054 57.5746 96.3082 64.2877 95.7125C71.3714 95.0817 78.4566 94.4523 85.5174 93.1584C92.3944 91.9533 99.2713 90.6195 106.116 89.2919C109.075 88.7192 112.027 88.1465 114.97 87.586C117.961 87.0103 120.939 86.1574 123.922 85.3014C129.189 83.7931 134.472 82.2786 139.872 82.2786C140.163 82.2786 141.002 82.0551 141.994 81.7886C142.845 81.562 143.81 81.3047 144.635 81.1332L144.704 82.2603C144.974 87.2369 144.778 92.2473 144.485 97.25C137.817 96.3572 132.235 99.3049 125.563 100.588C97.5961 105.896 69.7222 112.529 41.9418 119.163C39.4182 119.787 36.8839 120.724 34.3359 121.666C29.8492 123.326 25.3212 125 20.758 125C20.4824 125 19.8316 125.116 19.069 125.251C18.6051 125.334 18.0982 125.424 17.6082 125.499H17.6097Z" fill="#2953A7"/>
<path d="M95.3237 23.9307C84.8238 25.8142 22.2771 62.9661 18.2391 66.9137C17.7001 67.4527 10.9701 73.9147 11.9578 74.9024C13.1231 76.0677 16.0846 76.2484 17.5209 76.4276C23.0841 77.0554 28.9183 76.9666 34.4814 77.2345C42.0199 77.504 49.197 76.7859 56.737 76.3372C76.2991 75.0816 142.256 62.4286 143.423 60.0949C143.962 59.1073 133.822 50.9425 133.283 50.4938C130.949 48.6088 103.76 25.7254 95.3237 23.9307Z" fill="#FB8CAC"/>
<path d="M55.1644 56.4751C46.4667 56.0968 42.8728 49.0055 42.5895 45.7913C41.5483 36.2407 48.7345 31.7036 57.2439 29.8109C60.0813 29.1494 64.2418 29.0545 66.6995 30.8522C71.8063 34.7278 73.6975 47.4926 68.3074 51.9379C65.3765 54.489 59.893 56.665 55.1644 56.4751Z" fill="#2953A7"/>
<path d="M55.0786 36.1688C54.9837 34.7508 54.7938 33.5227 54.7938 32.1032C54.6055 27.9443 54.4156 23.0273 57.5363 19.9066" stroke="#292524" stroke-width="0.612512" stroke-miterlimit="3.007" stroke-linecap="round" stroke-linejoin="round"/>
</svg>
